<svg xmlns="http://www.w3.org/2000/svg" version="1.1" xmlns:xlink="http://www.w3.org/1999/xlink" width="1000" height="1000"><style>
    #light-icon {
      display: inline;
    }
    #dark-icon {
      display: none;
    }

    @media (prefers-color-scheme: dark) {
      #light-icon {
        display: none;
      }
      #dark-icon {
        display: inline;
      }
    }
  </style><g id="light-icon"><svg xmlns="http://www.w3.org/2000/svg" version="1.1" xmlns:xlink="http://www.w3.org/1999/xlink" width="1000" height="1000"><g><g transform="matrix(1.953125,0,0,1.953125,0,0)"><svg xmlns="http://www.w3.org/2000/svg" width="512" height="512" viewBox="0 0 512 512" fill="none"><path d="M256 40.96L471.04 256L256 471.04L40.96 256L256 40.96Z" stroke="#272727" stroke-opacity="0.8" stroke-width="2.5" stroke-linejoin="round"></path><path d="M263.955 48.915L463.085 263.955L248.045 463.085L48.915 248.045L263.955 48.915Z" stroke="#2B2B2B" stroke-opacity="0.8" stroke-width="2.45" stroke-linejoin="round"></path><path d="M271.32 56.87L455.13 271.32L240.68 455.13L56.87 240.68L271.32 56.87Z" stroke="#2F2F2F" stroke-opacity="0.8" stroke-width="2.4" stroke-linejoin="round"></path><path d="M278.12 64.8051L447.195 278.12L233.88 447.195L64.805 233.88L278.12 64.8051Z" stroke="#333333" stroke-opacity="0.8" stroke-width="2.35" stroke-linejoin="round"></path><path d="M284.375 72.6949L439.305 284.375L227.625 439.305L72.695 227.625L284.375 72.6949Z" stroke="#363636" stroke-opacity="0.8" stroke-width="2.3" stroke-linejoin="round"></path><path d="M290.11 80.525L431.475 290.11L221.89 431.475L80.525 221.89L290.11 80.525Z" stroke="#3A3A3A" stroke-opacity="0.8" stroke-width="2.25" stroke-linejoin="round"></path><path d="M295.34 88.28L423.72 295.34L216.66 423.72L88.28 216.66L295.34 88.28Z" stroke="#3E3E3E" stroke-opacity="0.8" stroke-width="2.2" stroke-linejoin="round"></path><path d="M300.09 95.9399L416.06 300.09L211.91 416.06L95.94 211.91L300.09 95.9399Z" stroke="#424242" stroke-opacity="0.8" stroke-width="2.15" stroke-linejoin="round"></path><path d="M304.38 103.495L408.505 304.38L207.62 408.505L103.495 207.62L304.38 103.495Z" stroke="#464646" stroke-opacity="0.8" stroke-width="2.1" stroke-linejoin="round"></path><path d="M308.23 110.925L401.075 308.23L203.77 401.075L110.925 203.77L308.23 110.925Z" stroke="#4A4A4A" stroke-opacity="0.8" stroke-width="2.05" stroke-linejoin="round"></path><path d="M311.665 118.225L393.775 311.665L200.335 393.775L118.225 200.335L311.665 118.225Z" stroke="#4E4E4E" stroke-opacity="0.8" stroke-width="2" stroke-linejoin="round"></path><path d="M314.705 125.38L386.62 314.705L197.295 386.62L125.38 197.295L314.705 125.38Z" stroke="#515151" stroke-opacity="0.8" stroke-width="1.95" stroke-linejoin="round"></path><path d="M317.365 132.385L379.615 317.365L194.635 379.615L132.385 194.635L317.365 132.385Z" stroke="#555555" stroke-opacity="0.8" stroke-width="1.9" stroke-linejoin="round"></path><path d="M319.665 139.23L372.77 319.665L192.335 372.77L139.23 192.335L319.665 139.23Z" stroke="#595959" stroke-opacity="0.8" stroke-width="1.85" stroke-linejoin="round"></path><path d="M321.63 145.905L366.095 321.63L190.37 366.095L145.905 190.37L321.63 145.905Z" stroke="#5D5D5D" stroke-opacity="0.8" stroke-width="1.8" stroke-linejoin="round"></path><path d="M323.275 152.405L359.595 323.275L188.725 359.595L152.405 188.725L323.275 152.405Z" stroke="#616161" stroke-opacity="0.8" stroke-width="1.75" stroke-linejoin="round"></path><path d="M324.62 158.725L353.275 324.62L187.38 353.275L158.725 187.38L324.62 158.725Z" stroke="#656565" stroke-opacity="0.8" stroke-width="1.7" stroke-linejoin="round"></path><path d="M325.68 164.865L347.135 325.68L186.32 347.135L164.865 186.32L325.68 164.865Z" stroke="#696969" stroke-opacity="0.8" stroke-width="1.65" stroke-linejoin="round"></path><path d="M326.475 170.81L341.19 326.475L185.525 341.19L170.81 185.525L326.475 170.81Z" stroke="#6C6C6C" stroke-opacity="0.8" stroke-width="1.6" stroke-linejoin="round"></path><path d="M327.02 176.57L335.43 327.02L184.98 335.43L176.57 184.98L327.02 176.57Z" stroke="#707070" stroke-opacity="0.8" stroke-width="1.55" stroke-linejoin="round"></path><path d="M327.33 182.135L329.865 327.33L184.67 329.865L182.135 184.67L327.33 182.135Z" stroke="#747474" stroke-opacity="0.8" stroke-width="1.5" stroke-linejoin="round"></path><path d="M327.425 187.51L324.49 327.425L184.575 324.49L187.51 184.575L327.425 187.51Z" stroke="#787878" stroke-opacity="0.8" stroke-width="1.45" stroke-linejoin="round"></path><path d="M327.315 192.685L319.315 327.315L184.685 319.315L192.685 184.685L327.315 192.685Z" stroke="#7C7C7C" stroke-opacity="0.8" stroke-width="1.4" stroke-linejoin="round"></path><path d="M327.02 197.665L314.335 327.02L184.98 314.335L197.665 184.98L327.02 197.665Z" stroke="#808080" stroke-opacity="0.8" stroke-width="1.35" stroke-linejoin="round"></path><path d="M326.55 202.45L309.55 326.55L185.45 309.55L202.45 185.45L326.55 202.45Z" stroke="#848484" stroke-opacity="0.8" stroke-width="1.3" stroke-linejoin="round"></path><path d="M325.92 207.04L304.96 325.92L186.08 304.96L207.04 186.08L325.92 207.04Z" stroke="#888888" stroke-opacity="0.8" stroke-width="1.25" stroke-linejoin="round"></path><path d="M325.145 211.44L300.56 325.145L186.855 300.56L211.44 186.855L325.145 211.44Z" stroke="#8B8B8B" stroke-opacity="0.8" stroke-width="1.2" stroke-linejoin="round"></path><path d="M324.235 215.645L296.355 324.235L187.765 296.355L215.645 187.765L324.235 215.645Z" stroke="#8F8F8F" stroke-opacity="0.8" stroke-width="1.15" stroke-linejoin="round"></path><path d="M323.205 219.665L292.335 323.205L188.795 292.335L219.665 188.795L323.205 219.665Z" stroke="#939393" stroke-opacity="0.8" stroke-width="1.1" stroke-linejoin="round"></path><path d="M322.06 223.495L288.505 322.06L189.94 288.505L223.495 189.94L322.06 223.495Z" stroke="#979797" stroke-opacity="0.8" stroke-width="1.05" stroke-linejoin="round"></path><path d="M320.82 227.14L284.86 320.82L191.18 284.86L227.14 191.18L320.82 227.14Z" stroke="#9B9B9B" stroke-opacity="0.8" stroke-linejoin="round"></path><path d="M319.49 230.605L281.395 319.49L192.51 281.395L230.605 192.51L319.49 230.605Z" stroke="#9F9F9F" stroke-opacity="0.8" stroke-linejoin="round"></path><path d="M318.08 233.895L278.105 318.08L193.92 278.105L233.895 193.92L318.08 233.895Z" stroke="#A3A3A3" stroke-opacity="0.8" stroke-linejoin="round"></path><path d="M316.6 237.01L274.99 316.6L195.4 274.99L237.01 195.4L316.6 237.01Z" stroke="#A6A6A6" stroke-opacity="0.8" stroke-linejoin="round"></path><path d="M315.065 239.955L272.045 315.065L196.935 272.045L239.955 196.935L315.065 239.955Z" stroke="#AAAAAA" stroke-opacity="0.8" stroke-linejoin="round"></path><path d="M313.47 242.73L269.27 313.47L198.53 269.27L242.73 198.53L313.47 242.73Z" stroke="#AEAEAE" stroke-opacity="0.8" stroke-linejoin="round"></path><path d="M311.835 245.35L266.65 311.835L200.165 266.65L245.35 200.165L311.835 245.35Z" stroke="#B2B2B2" stroke-opacity="0.8" stroke-linejoin="round"></path><path d="M310.165 247.81L264.19 310.165L201.835 264.19L247.81 201.835L310.165 247.81Z" stroke="#B6B6B6" stroke-opacity="0.8" stroke-linejoin="round"></path><path d="M308.465 250.115L261.885 308.465L203.535 261.885L250.115 203.535L308.465 250.115Z" stroke="#BABABA" stroke-opacity="0.8" stroke-linejoin="round"></path><path d="M306.74 252.275L259.725 306.74L205.26 259.725L252.275 205.26L306.74 252.275Z" stroke="#BEBEBE" stroke-opacity="0.8" stroke-linejoin="round"></path><path d="M305 254.29L257.71 305L207 257.71L254.29 207L305 254.29Z" stroke="#C1C1C1" stroke-opacity="0.8" stroke-linejoin="round"></path><path d="M303.25 256.165L255.835 303.25L208.75 255.835L256.165 208.75L303.25 256.165Z" stroke="#C5C5C5" stroke-opacity="0.8" stroke-linejoin="round"></path><path d="M301.5 257.905L254.095 301.5L210.5 254.095L257.905 210.5L301.5 257.905Z" stroke="#C9C9C9" stroke-opacity="0.8" stroke-linejoin="round"></path><path d="M299.745 259.52L252.48 299.745L212.255 252.48L259.52 212.255L299.745 259.52Z" stroke="#CDCDCD" stroke-opacity="0.8" stroke-linejoin="round"></path><path d="M297.995 261.01L250.99 297.995L214.005 250.99L261.01 214.005L297.995 261.01Z" stroke="#D1D1D1" stroke-opacity="0.8" stroke-linejoin="round"></path><path d="M296.255 262.375L249.625 296.255L215.745 249.625L262.375 215.745L296.255 262.375Z" stroke="#D5D5D5" stroke-opacity="0.8" stroke-linejoin="round"></path><path d="M294.53 263.63L248.37 294.53L217.47 248.37L263.63 217.47L294.53 263.63Z" stroke="#D9D9D9" stroke-opacity="0.8" stroke-linejoin="round"></path><path d="M292.825 264.775L247.225 292.825L219.175 247.225L264.775 219.175L292.825 264.775Z" stroke="#DCDCDC" stroke-opacity="0.8" stroke-linejoin="round"></path><path d="M291.135 265.81L246.19 291.135L220.865 246.19L265.81 220.865L291.135 265.81Z" stroke="#E0E0E0" stroke-opacity="0.8" stroke-linejoin="round"></path><path d="M289.475 266.745L245.255 289.475L222.525 245.255L266.745 222.525L289.475 266.745Z" stroke="#E4E4E4" stroke-opacity="0.8" stroke-linejoin="round"></path></svg></g></g></svg></g><g id="dark-icon"><svg xmlns="http://www.w3.org/2000/svg" version="1.1" xmlns:xlink="http://www.w3.org/1999/xlink" width="1000" height="1000"><g><g transform="matrix(1.953125,0,0,1.953125,0,0)"><svg xmlns="http://www.w3.org/2000/svg" width="512" height="512" viewBox="0 0 512 512" fill="none"><path d="M256 40.96L471.04 256L256 471.04L40.96 256L256 40.96Z" stroke="white" stroke-opacity="0.8" stroke-width="2.5" stroke-linejoin="round"></path><path d="M263.955 48.915L463.085 263.955L248.045 463.085L48.915 248.045L263.955 48.915Z" stroke="#FBFBFB" stroke-opacity="0.8" stroke-width="2.45" stroke-linejoin="round"></path><path d="M271.32 56.87L455.13 271.32L240.68 455.13L56.87 240.68L271.32 56.87Z" stroke="#F7F7F7" stroke-opacity="0.8" stroke-width="2.4" stroke-linejoin="round"></path><path d="M278.12 64.8051L447.195 278.12L233.88 447.195L64.805 233.88L278.12 64.8051Z" stroke="#F3F3F3" stroke-opacity="0.8" stroke-width="2.35" stroke-linejoin="round"></path><path d="M284.375 72.6949L439.305 284.375L227.625 439.305L72.695 227.625L284.375 72.6949Z" stroke="#EFEFEF" stroke-opacity="0.8" stroke-width="2.3" stroke-linejoin="round"></path><path d="M290.11 80.525L431.475 290.11L221.89 431.475L80.525 221.89L290.11 80.525Z" stroke="#EBEBEB" stroke-opacity="0.8" stroke-width="2.25" stroke-linejoin="round"></path><path d="M295.34 88.28L423.72 295.34L216.66 423.72L88.28 216.66L295.34 88.28Z" stroke="#E7E7E7" stroke-opacity="0.8" stroke-width="2.2" stroke-linejoin="round"></path><path d="M300.09 95.9399L416.06 300.09L211.91 416.06L95.94 211.91L300.09 95.9399Z" stroke="#E2E2E2" stroke-opacity="0.8" stroke-width="2.15" stroke-linejoin="round"></path><path d="M304.38 103.495L408.505 304.38L207.62 408.505L103.495 207.62L304.38 103.495Z" stroke="#DEDEDE" stroke-opacity="0.8" stroke-width="2.1" stroke-linejoin="round"></path><path d="M308.23 110.925L401.075 308.23L203.77 401.075L110.925 203.77L308.23 110.925Z" stroke="#DADADA" stroke-opacity="0.8" stroke-width="2.05" stroke-linejoin="round"></path><path d="M311.665 118.225L393.775 311.665L200.335 393.775L118.225 200.335L311.665 118.225Z" stroke="#D6D6D6" stroke-opacity="0.8" stroke-width="2" stroke-linejoin="round"></path><path d="M314.705 125.38L386.62 314.705L197.295 386.62L125.38 197.295L314.705 125.38Z" stroke="#D2D2D2" stroke-opacity="0.8" stroke-width="1.95" stroke-linejoin="round"></path><path d="M317.365 132.385L379.615 317.365L194.635 379.615L132.385 194.635L317.365 132.385Z" stroke="#CECECE" stroke-opacity="0.8" stroke-width="1.9" stroke-linejoin="round"></path><path d="M319.665 139.23L372.77 319.665L192.335 372.77L139.23 192.335L319.665 139.23Z" stroke="#CACACA" stroke-opacity="0.8" stroke-width="1.85" stroke-linejoin="round"></path><path d="M321.63 145.905L366.095 321.63L190.37 366.095L145.905 190.37L321.63 145.905Z" stroke="#C6C6C6" stroke-opacity="0.8" stroke-width="1.8" stroke-linejoin="round"></path><path d="M323.275 152.405L359.595 323.275L188.725 359.595L152.405 188.725L323.275 152.405Z" stroke="#C2C2C2" stroke-opacity="0.8" stroke-width="1.75" stroke-linejoin="round"></path><path d="M324.62 158.725L353.275 324.62L187.38 353.275L158.725 187.38L324.62 158.725Z" stroke="#BEBEBE" stroke-opacity="0.8" stroke-width="1.7" stroke-linejoin="round"></path><path d="M325.68 164.865L347.135 325.68L186.32 347.135L164.865 186.32L325.68 164.865Z" stroke="#BABABA" stroke-opacity="0.8" stroke-width="1.65" stroke-linejoin="round"></path><path d="M326.475 170.81L341.19 326.475L185.525 341.19L170.81 185.525L326.475 170.81Z" stroke="#B6B6B6" stroke-opacity="0.8" stroke-width="1.6" stroke-linejoin="round"></path><path d="M327.02 176.57L335.43 327.02L184.98 335.43L176.57 184.98L327.02 176.57Z" stroke="#B1B1B1" stroke-opacity="0.8" stroke-width="1.55" stroke-linejoin="round"></path><path d="M327.33 182.135L329.865 327.33L184.67 329.865L182.135 184.67L327.33 182.135Z" stroke="#ADADAD" stroke-opacity="0.8" stroke-width="1.5" stroke-linejoin="round"></path><path d="M327.425 187.51L324.49 327.425L184.575 324.49L187.51 184.575L327.425 187.51Z" stroke="#A9A9A9" stroke-opacity="0.8" stroke-width="1.45" stroke-linejoin="round"></path><path d="M327.315 192.685L319.315 327.315L184.685 319.315L192.685 184.685L327.315 192.685Z" stroke="#A5A5A5" stroke-opacity="0.8" stroke-width="1.4" stroke-linejoin="round"></path><path d="M327.02 197.665L314.335 327.02L184.98 314.335L197.665 184.98L327.02 197.665Z" stroke="#A1A1A1" stroke-opacity="0.8" stroke-width="1.35" stroke-linejoin="round"></path><path d="M326.55 202.45L309.55 326.55L185.45 309.55L202.45 185.45L326.55 202.45Z" stroke="#9D9D9D" stroke-opacity="0.8" stroke-width="1.3" stroke-linejoin="round"></path><path d="M325.92 207.04L304.96 325.92L186.08 304.96L207.04 186.08L325.92 207.04Z" stroke="#999999" stroke-opacity="0.8" stroke-width="1.25" stroke-linejoin="round"></path><path d="M325.145 211.44L300.56 325.145L186.855 300.56L211.44 186.855L325.145 211.44Z" stroke="#959595" stroke-opacity="0.8" stroke-width="1.2" stroke-linejoin="round"></path><path d="M324.235 215.645L296.355 324.235L187.765 296.355L215.645 187.765L324.235 215.645Z" stroke="#919191" stroke-opacity="0.8" stroke-width="1.15" stroke-linejoin="round"></path><path d="M323.205 219.665L292.335 323.205L188.795 292.335L219.665 188.795L323.205 219.665Z" stroke="#8D8D8D" stroke-opacity="0.8" stroke-width="1.1" stroke-linejoin="round"></path><path d="M322.06 223.495L288.505 322.06L189.94 288.505L223.495 189.94L322.06 223.495Z" stroke="#898989" stroke-opacity="0.8" stroke-width="1.05" stroke-linejoin="round"></path><path d="M320.82 227.14L284.86 320.82L191.18 284.86L227.14 191.18L320.82 227.14Z" stroke="#858585" stroke-opacity="0.8" stroke-linejoin="round"></path><path d="M319.49 230.605L281.395 319.49L192.51 281.395L230.605 192.51L319.49 230.605Z" stroke="#818181" stroke-opacity="0.8" stroke-linejoin="round"></path><path d="M318.08 233.895L278.105 318.08L193.92 278.105L233.895 193.92L318.08 233.895Z" stroke="#7C7C7C" stroke-opacity="0.8" stroke-linejoin="round"></path><path d="M316.6 237.01L274.99 316.6L195.4 274.99L237.01 195.4L316.6 237.01Z" stroke="#787878" stroke-opacity="0.8" stroke-linejoin="round"></path><path d="M315.065 239.955L272.045 315.065L196.935 272.045L239.955 196.935L315.065 239.955Z" stroke="#747474" stroke-opacity="0.8" stroke-linejoin="round"></path><path d="M313.47 242.73L269.27 313.47L198.53 269.27L242.73 198.53L313.47 242.73Z" stroke="#707070" stroke-opacity="0.8" stroke-linejoin="round"></path><path d="M311.835 245.35L266.65 311.835L200.165 266.65L245.35 200.165L311.835 245.35Z" stroke="#6C6C6C" stroke-opacity="0.8" stroke-linejoin="round"></path><path d="M310.165 247.81L264.19 310.165L201.835 264.19L247.81 201.835L310.165 247.81Z" stroke="#686868" stroke-opacity="0.8" stroke-linejoin="round"></path><path d="M308.465 250.115L261.885 308.465L203.535 261.885L250.115 203.535L308.465 250.115Z" stroke="#646464" stroke-opacity="0.8" stroke-linejoin="round"></path><path d="M306.74 252.275L259.725 306.74L205.26 259.725L252.275 205.26L306.74 252.275Z" stroke="#606060" stroke-opacity="0.8" stroke-linejoin="round"></path><path d="M305 254.29L257.71 305L207 257.71L254.29 207L305 254.29Z" stroke="#5C5C5C" stroke-opacity="0.8" stroke-linejoin="round"></path><path d="M303.25 256.165L255.835 303.25L208.75 255.835L256.165 208.75L303.25 256.165Z" stroke="#585858" stroke-opacity="0.8" stroke-linejoin="round"></path><path d="M301.5 257.905L254.095 301.5L210.5 254.095L257.905 210.5L301.5 257.905Z" stroke="#545454" stroke-opacity="0.8" stroke-linejoin="round"></path><path d="M299.745 259.52L252.48 299.745L212.255 252.48L259.52 212.255L299.745 259.52Z" stroke="#505050" stroke-opacity="0.8" stroke-linejoin="round"></path><path d="M297.995 261.01L250.99 297.995L214.005 250.99L261.01 214.005L297.995 261.01Z" stroke="#4B4B4B" stroke-opacity="0.8" stroke-linejoin="round"></path><path d="M296.255 262.375L249.625 296.255L215.745 249.625L262.375 215.745L296.255 262.375Z" stroke="#474747" stroke-opacity="0.8" stroke-linejoin="round"></path><path d="M294.53 263.63L248.37 294.53L217.47 248.37L263.63 217.47L294.53 263.63Z" stroke="#434343" stroke-opacity="0.8" stroke-linejoin="round"></path><path d="M292.825 264.775L247.225 292.825L219.175 247.225L264.775 219.175L292.825 264.775Z" stroke="#3F3F3F" stroke-opacity="0.8" stroke-linejoin="round"></path><path d="M291.135 265.81L246.19 291.135L220.865 246.19L265.81 220.865L291.135 265.81Z" stroke="#3B3B3B" stroke-opacity="0.8" stroke-linejoin="round"></path><path d="M289.475 266.745L245.255 289.475L222.525 245.255L266.745 222.525L289.475 266.745Z" stroke="#373737" stroke-opacity="0.8" stroke-linejoin="round"></path></svg></g></g></svg></g></svg>